:version 1.10
:name ASF
:units
  mass 1
  length 1
  angle deg
:documentation
  ASF file generated by Kaydara
:root
  axis xyz
  order  tx ty tz rx ry rz
  position 0 0 0
  orientation 0 0 0
:bonedata
  begin
    id 1
    name RightUpLegDummy
    direction -0.718183 -0.695806 0.00816078
    length 4.904
    axis 0 0 0 xyz
  end
  begin
    id 2
    name RightUpLeg
    direction -0.0736652 -0.994202 0.0783343
    length 17.4976
    axis -2.72909 -3.00389 -4.00133 xyz
    dof rx ry rz
  end
  begin
    id 3
    name RightLeg
    direction -0.0389037 -0.994596 -0.0962598
    length 16.5821
    axis 3.95836 -18.5909 -4.46993 xyz
    dof rx ry rz
  end
  begin
    id 4
    name RightFoot
    direction -0.311643 -0.412678 0.855906
    length 3.77069
    axis -1.99483 -18.8351 -3.27644 xyz
    dof rx ry rz
  end
  begin
    id 5
    name RightToes
    direction -0.317852 0.0389852 0.947339
    length 3.85082
    axis -2.00228 -18.1713 -3.25211 xyz
    dof rx ry rz
  end
  begin
    id 6
    name SpineDummy
    direction 8.3039e-015 1 4.44677e-016
    length 4.6813
    axis 0 0 0 xyz
  end
  begin
    id 7
    name Spine
    direction -0.000262373 0.999988 0.00493267
    length 10.1015
    axis -0.00246081 0.00062579 0.0150362 xyz
    dof rx ry rz
  end
  begin
    id 8
    name Spine1
    direction 0 0 0
    length 0
    axis -0.00349562 0.000650293 0.0196666 xyz
    dof rx ry rz
  end
  begin
    id 9
    name HEadDummy
    direction -0.000343232 0.999999 0.00123745
    length 3.43865
    axis -0.00349562 0.000650293 0.0196666 xyz
  end
  begin
    id 10
    name HEad
    direction -0.0461221 0.980933 0.188796
    length 5.12695
    axis -0.00351404 -7.04812 0.0199272 xyz
    dof rx ry rz
  end
  begin
    id 11
    name LeftShoulder1Dummy
    direction 0.998904 -0.0399089 -0.0244534
    length 3.5433
    axis -0.00349562 0.000650293 0.0196666 xyz
  end
  begin
    id 12
    name LeftShoulder1
    direction 0.99951 1.64443e-005 0.0312999
    length 4.05031
    axis -0.00349562 0.000650293 0.0196666 xyz
    dof rx ry rz
  end
  begin
    id 13
    name LeftArm
    direction 0.984791 0.0515299 0.165927
    length 12.9126
    axis -64.823 -10.7743 5.20463 xyz
    dof rx ry rz
  end
  begin
    id 14
    name LeftForeArm
    direction 0.984968 0.0534808 0.16425
    length 10.8596
    axis -30.0462 -7.70601 1.87451 xyz
    dof rx ry rz
  end
  begin
    id 15
    name LeftHand
    direction 0.975871 0.0289682 0.216418
    length 6.62295
    axis -20.1348 -6.98077 1.86072 xyz
    dof rx ry rz
  end
  begin
    id 16
    name RightShoulderDummy
    direction -0.998877 -0.0405946 -0.0244307
    length 3.5433
    axis -0.00349562 0.000650293 0.0196666 xyz
  end
  begin
    id 17
    name RightShoulder
    direction -0.998933 -0.0249743 -0.0388558
    length 4.05031
    axis -0.0205316 -4.02113 1.41395 xyz
    dof rx ry rz
  end
  begin
    id 18
    name RightArm
    direction -0.997559 0.068664 0.0127103
    length 12.9638
    axis -67.3882 1.84188 -6.15987 xyz
    dof rx ry rz
  end
  begin
    id 19
    name RightForeArm
    direction -0.991508 0.0912848 0.0926241
    length 10.8312
    axis -22.1975 3.41087 -4.28711 xyz
    dof rx ry rz
  end
  begin
    id 20
    name RightHand
    direction -0.989262 0.0600788 0.133232
    length 6.57864
    axis -12.2911 2.17515 -4.39675 xyz
    dof rx ry rz
  end
  begin
    id 21
    name LeftUpLegDummy
    direction 0.718183 -0.695806 0.00816078
    length 4.904
    axis 0 0 0 xyz
  end
  begin
    id 22
    name LeftUpLeg
    direction 0.0831398 -0.99469 0.0606531
    length 17.4976
    axis -1.71016 2.29552 4.63832 xyz
    dof rx ry rz
  end
  begin
    id 23
    name LeftLeg
    direction 0.0498442 -0.991778 -0.117862
    length 16.5821
    axis 5.13757 15.5727 5.13348 xyz
    dof rx ry rz
  end
  begin
    id 24
    name LeftFoot
    direction 0.269026 -0.433896 0.85986
    length 3.77069
    axis -0.576502 15.6961 4.10267 xyz
    dof rx ry rz
  end
  begin
    id 25
    name LeftToes
    direction 0.277311 0.0251143 0.960452
    length 3.85048
    axis -0.576502 15.6961 4.10267 xyz
    dof rx ry rz
  end
:hierarchy
  begin
    root RightUpLegDummy SpineDummy LeftUpLegDummy
    RightUpLegDummy RightUpLeg
    RightUpLeg RightLeg
    RightLeg RightFoot
    RightFoot RightToes
    SpineDummy Spine
    Spine Spine1
    Spine1 HEadDummy LeftShoulder1Dummy RightShoulderDummy
    HEadDummy HEad
    LeftShoulder1Dummy LeftShoulder1
    LeftShoulder1 LeftArm
    LeftArm LeftForeArm
    LeftForeArm LeftHand
    RightShoulderDummy RightShoulder
    RightShoulder RightArm
    RightArm RightForeArm
    RightForeArm RightHand
    LeftUpLegDummy LeftUpLeg
    LeftUpLeg LeftLeg
    LeftLeg LeftFoot
    LeftFoot LeftToes
  end

:SAMPLES-PER-SECOND 30
:FULLY-SPECIFIED
:DEGREES
57
root  -6.13155 34.3161 87.0379 -156.165 23.0814 -172.788
RightUpLeg  -61.2861 -6.90222 22.1226
RightLeg  50.6834 16.2038 -0.327224
RightFoot  -11.3246 0.214676 -10.9023
RightToes  -5.82073e-011 -3.18055e-015 -2.98177e-016
Spine  29.1027 0.330084 10.3214
Spine1  5.22695 2.31556 -2.97054
HEad  -5.43889 5.89527 -9.84209
LeftShoulder1  -3.88251e-019 9.70628e-020 -3.87848e-018
LeftArm  -11.0198 23.7233 -64.1308
LeftForeArm  8.39343 -14.6865 -4.64429
LeftHand  -1.4973 -6.96404 14.7391
RightShoulder  4.10727 9.03532 19.5958
RightArm  5.12099 9.17873 63.7077
RightForeArm  36.0245 9.84746 -3.92079
RightHand  -2.44048 7.53775 -21.606
LeftUpLeg  -41.0134 16.0451 -3.99076
LeftLeg  59.5709 -3.97786 19.5214
LeftFoot  -34.8543 -2.93551 -14.6804
LeftToes  -2.27483e-011 -5.53417e-011 9.36564e-012
58
root  -6.21858 33.4934 87.0861 -153.272 23.3039 -171.129
RightUpLeg  -65.7918 -5.78933 24.3916
RightLeg  54.5519 16.2805 -0.13212
RightFoot  -12.3583 0.123202 -11.3834
RightToes  -5.82073e-011 -3.18055e-015 -2.98177e-016
Spine  30.3107 0.137532 10.6454
Spine1  4.87456 2.07304 -3.17118
HEad  -7.1026 6.58969 -10.1307
LeftShoulder1  -3.88251e-019 9.70628e-020 -3.87848e-018
LeftArm  -10.8251 18.8589 -63.3031
LeftForeArm  7.30455 -14.1095 -4.30407
LeftHand  -1.65408 -7.2153 15.9082
RightShoulder  3.59392 8.74139 16.9331
RightArm  6.77955 12.2047 66.6824
RightForeArm  40.0136 10.2094 -4.18246
RightHand  -2.51206 8.23365 -21.1315
LeftUpLeg  -45.2942 16.2034 -3.61922
LeftLeg  63.1272 -4.67866 21.3589
LeftFoot  -37.8555 -3.46739 -15.2289
LeftToes  -2.27483e-011 -5.53417e-011 9.36564e-012
59
root  -6.2828 32.6203 87.1348 -150.852 22.7708 -169.352
RightUpLeg  -69.9418 -4.94349 26.7836
RightLeg  58.6301 16.1488 -0.26367
RightFoot  -13.4048 0.0217603 -11.9761
RightToes  -5.82073e-011 -3.18055e-015 -2.98177e-016
Spine  31.6352 0.0604856 10.8688
Spine1  4.84359 1.74223 -2.44719
HEad  -8.76446 7.05444 -10.2466
LeftShoulder1  -3.88251e-019 9.70628e-020 -3.87848e-018
LeftArm  -11.2195 13.0246 -62.9183
LeftForeArm  7.29829 -12.2355 -3.81512
LeftHand  -1.83013 -7.38952 17.2921
RightShoulder  3.02273 8.2013 14.161
RightArm  8.23662 15.3364 69.0457
RightForeArm  41.9156 10.84 -4.70549
RightHand  -2.57977 9.03187 -20.5246
LeftUpLeg  -49.6303 16.0913 -2.58554
LeftLeg  67.6679 -6.06873 23.0905
LeftFoot  -39.8609 -4.01919 -16.3259
LeftToes  -2.27483e-011 -5.53417e-011 9.36564e-012
60
root  -6.32207 31.7316 87.179 -149.297 22.0985 -167.468
RightUpLeg  -73.0429 -4.04342 28.9634
RightLeg  62.5105 15.8147 -0.893206
RightFoot  -14.7207 -0.116964 -12.4169
RightToes  -5.82073e-011 -3.18055e-015 -2.98177e-016
Spine  33.642 -0.0633735 11.0052
Spine1  4.60239 1.58968 -1.99604
HEad  -10.0625 7.4872 -9.55657
LeftShoulder1  -3.88251e-019 9.70628e-020 -3.87848e-018
LeftArm  -11.6801 6.60476 -62.5086
LeftForeArm  7.94869 -9.05423 -3.23137
LeftHand  -2.11005 -7.74455 19.3282
RightShoulder  2.62534 7.85593 12.0637
RightArm  9.36867 18.2795 70.39
RightForeArm  40.9026 11.5432 -5.24956
RightHand  -2.59653 9.31218 -20.2766
LeftUpLeg  -53.201 15.9641 -0.671121
LeftLeg  72.8671 -8.24993 23.6462
LeftFoot  -40.9697 -4.50702 -17.5741
LeftToes  -2.27483e-011 -5.53417e-011 9.36564e-012
61
root  -6.34725 30.7977 87.1995 -148.284 21.4659 -165.836
RightUpLeg  -75.7778 -3.15517 30.7351
RightLeg  66.4124 15.4626 -1.85384
RightFoot  -16.3231 -0.288948 -12.5443
RightToes  -5.82073e-011 -3.18055e-015 -2.98177e-016
Spine  35.6981 0.0139582 10.305
Spine1  4.24681 1.3257 -0.819046
HEad  -10.9871 8.35642 -9.0781
LeftShoulder1  -3.88251e-019 9.70628e-020 -3.87848e-018
LeftArm  -12.5195 0.253264 -61.4924
LeftForeArm  7.80176 -5.66144 -2.84075
LeftHand  -2.20331 -7.46367 20.5925
RightShoulder  2.32581 7.84748 10.0526
RightArm  9.73282 21.0208 71.4132
RightForeArm  37.9502 11.5633 -5.72405
RightHand  -2.44152 8.71798 -19.8664
LeftUpLeg  -56.2105 15.7461 1.35362
LeftLeg  78.4443 -10.6979 23.2125
LeftFoot  -41.7094 -5.05281 -19.1845
LeftToes  -2.27483e-011 -5.53417e-011 9.36564e-012
62
root  -6.34421 29.7608 87.1716 -146.861 20.7211 -164.024
RightUpLeg  -78.984 -1.90868 32.7107
RightLeg  70.5116 15.1645 -3.1536
RightFoot  -17.8577 -0.453748 -12.5742
RightToes  -5.82073e-011 -3.18055e-015 -2.98177e-016
Spine  36.6828 0.162556 9.7812
Spine1  4.78777 1.19786 0.0552325
HEad  -12.2314 9.42408 -8.78916
LeftShoulder1  -3.88251e-019 9.70628e-020 -3.87848e-018
LeftArm  -13.2107 -6.11758 -59.9201
LeftForeArm  5.30438 -3.29452 -2.30442
LeftHand  -1.90976 -6.21906 19.8252
RightShoulder  1.98911 7.32578 8.42945
RightArm  10.0173 24.2602 73.0002
RightForeArm  34.8219 10.7873 -6.2179
RightHand  -2.21834 8.14242 -18.8473
LeftUpLeg  -59.4524 15.9179 3.36587
LeftLeg  84.1669 -13.0288 22.592
LeftFoot  -42.7994 -5.74934 -21.0039
LeftToes  -2.27483e-011 -5.53417e-011 9.36564e-012
63
root  -6.34385 28.7332 87.097 -146.486 19.6833 -162.403
RightUpLeg  -81.3962 -1.42707 34.6235
RightLeg  74.6937 15.0267 -4.65421
RightFoot  -19.466 -0.627613 -12.6153
RightToes  -5.82073e-011 -3.18055e-015 -2.98177e-016
Spine  38.464 0.148538 9.10954
Spine1  5.10698 0.869117 1.446
HEad  -13.4751 10.7971 -8.82667
LeftShoulder1  -3.88251e-019 9.70628e-020 -3.87848e-018
LeftArm  -13.7785 -11.3161 -58.1356
LeftForeArm  0.232772 -2.17778 -1.6521
LeftHand  -1.58425 -4.91569 18.6777
RightShoulder  1.63408 6.71813 6.65369
RightArm  10.1816 27.3482 74.9945
RightForeArm  33.7651 9.26776 -6.90179
RightHand  -2.21302 8.76054 -18.0115
LeftUpLeg  -61.2992 15.8355 5.60939
LeftLeg  89.4584 -15.0145 22.0249
LeftFoot  -44.1397 -6.48748 -22.6343
LeftToes  -2.27483e-011 -5.53417e-011 9.36564e-012
64
root  -6.35494 27.7135 86.9824 -146.422 18.5901 -160.804
RightUpLeg  -83.364 -1.20943 36.5197
RightLeg  78.6373 15.0878 -6.18244
RightFoot  -21.3757 -0.82049 -12.4549
RightToes  -5.82073e-011 -3.18055e-015 -2.98177e-016
Spine  40.4738 0.229983 8.34235
Spine1  5.01894 0.57242 3.13557
HEad  -14.6302 12.2952 -8.87001
LeftShoulder1  -3.88251e-019 9.70628e-020 -3.87848e-018
LeftArm  -13.8693 -15.15 -56.6541
LeftForeArm  -5.95844 -1.54487 -0.677333
LeftHand  -1.54157 -4.40028 19.135
RightShoulder  1.26506 6.09512 4.64054
RightArm  10.3403 29.8862 76.7758
RightForeArm  34.2223 7.91927 -7.75966
RightHand  -2.47438 10.172 -18.3065
LeftUpLeg  -62.6276 15.8645 8.05051
LeftLeg  94.8683 -16.7558 20.5767
LeftFoot  -45.454 -7.16592 -23.9314
LeftToes  -2.27483e-011 -5.53417e-011 9.36564e-012
65
root  -6.38143 26.6444 86.8206 -145.413 17.4135 -159.528
RightUpLeg  -86.4075 -0.685261 38.1916
RightLeg  82.5777 15.3784 -7.42693
RightFoot  -23.4206 -0.995629 -11.9873
RightToes  -5.82073e-011 -3.18055e-015 -2.98177e-016
Spine  41.3445 0.466189 7.55631
Spine1  4.44411 0.242785 4.79629
HEad  -15.5433 13.7024 -8.96002
LeftShoulder1  -3.88251e-019 9.70628e-020 -3.87848e-018
LeftArm  -13.7882 -18.1397 -55.2296
LeftForeArm  -10.3636 -0.773706 0.448114
LeftHand  -1.54136 -4.01514 19.9235
RightShoulder  0.97543 5.55253 2.98183
RightArm  10.6958 31.8441 77.7878
RightForeArm  34.3623 7.32464 -8.40145
RightHand  -2.73653 10.8761 -19.363
LeftUpLeg  -65.1248 15.7706 9.93249
LeftLeg  100.648 -18.223 18.5895
LeftFoot  -46.3665 -7.83773 -25.404
LeftToes  -2.27483e-011 -5.53417e-011 9.36564e-012
66
root  -6.43056 25.5891 86.5999 -144.351 16.4858 -158.333
RightUpLeg  -89.4818 -0.0523541 39.5486
RightLeg  86.628 15.8533 -8.26455
RightFoot  -25.0998 -1.10228 -11.3632
RightToes  -5.82073e-011 -3.18055e-015 -2.98177e-016
Spine  42.2831 0.691107 6.95837
Spine1  3.39359 0.130881 5.92829
HEad  -16.3069 14.782 -9.09808
LeftShoulder1  -3.88251e-019 9.70628e-020 -3.87848e-018
LeftArm  -13.7361 -21.108 -53.2505
LeftForeArm  -12.0465 0.0347796 1.31037
LeftHand  -1.29986 -2.89609 19.1868
RightShoulder  0.739005 4.92108 1.722
RightArm  11.334 33.4741 78.2635
RightForeArm  33.2238 7.4599 -8.7547
RightHand  -2.74015 10.4038 -19.9411
LeftUpLeg  -67.3455 15.7951 11.4625
LeftLeg  106.237 -19.4049 16.8628
LeftFoot  -47.0641 -8.55116 -27.0884
LeftToes  -2.27483e-011 -5.53417e-011 9.36564e-012
67
root  -6.48672 24.589 86.3165 -143.494 16.0904 -157.102
RightUpLeg  -92.069 0.815226 40.5079
RightLeg  90.5957 16.4234 -8.96252
RightFoot  -26.3245 -1.1354 -10.6246
RightToes  -5.82073e-011 -3.18055e-015 -2.98177e-016
Spine  43.2527 1.02916 6.26507
Spine1  2.62755 0.316219 6.52298
HEad  -17.2118 15.5178 -9.153
LeftShoulder1  -3.88251e-019 9.70628e-020 -3.87848e-018
LeftArm  -13.5509 -24.224 -50.5477
LeftForeArm  -12.5654 0.36709 1.75244
LeftHand  -1.15401 -2.21518 18.6891
RightShoulder  0.522514 4.27193 0.526888
RightArm  11.9764 34.9726 78.39
RightForeArm  31.4254 8.08242 -9.08522
RightHand  -2.60027 9.6582 -19.8543
LeftUpLeg  -68.6231 16.3721 12.6781
LeftLeg  111.308 -20.298 15.3869
LeftFoot  -47.9774 -9.21396 -28.356
LeftToes  -2.27483e-011 -5.53417e-011 9.36564e-012
